<?xml version="1.0" encoding="UTF-8"?>
<svg xmlns="http://www.w3.org/2000/svg" xmlns:xlink="http://www.w3.org/1999/xlink" width="24px" height="24px" viewBox="0 0 24 24" version="1.1">
<g id="surface1">
<path style=" stroke:none;fill-rule:evenodd;fill:rgb(0%,0%,0%);fill-opacity:1;" d="M 19 7.171875 C 20.199219 7.59375 21.003906 8.726562 21.003906 10 C 21.003906 11.273438 20.199219 12.40625 19 12.828125 L 19 19 C 19 19.550781 18.550781 20 18 20 C 17.449219 20 17 19.550781 17 19 L 17 12.828125 C 15.800781 12.40625 14.996094 11.273438 14.996094 10 C 14.996094 8.726562 15.800781 7.59375 17 7.171875 L 17 5 C 17 4.449219 17.449219 4 18 4 C 18.550781 4 19 4.449219 19 5 Z M 15 15 C 15 16.273438 14.199219 17.40625 13 17.828125 L 13 19 C 13 19.550781 12.550781 20 12 20 C 11.449219 20 11 19.550781 11 19 L 11 17.828125 C 9.800781 17.40625 8.996094 16.273438 8.996094 15 C 8.996094 13.726562 9.800781 12.59375 11 12.171875 L 11 5 C 11 4.449219 11.449219 4 12 4 C 12.550781 4 13 4.449219 13 5 L 13 12.171875 C 14.164062 12.582031 15 13.695312 15 15 Z M 7 7.171875 C 8.199219 7.59375 9.003906 8.726562 9.003906 10 C 9.003906 11.273438 8.199219 12.40625 7 12.828125 L 7 19 C 7 19.550781 6.550781 20 6 20 C 5.449219 20 5 19.550781 5 19 L 5 12.828125 C 3.800781 12.40625 2.996094 11.273438 2.996094 10 C 2.996094 8.726562 3.800781 7.59375 5 7.171875 L 5 5 C 5 4.449219 5.449219 4 6 4 C 6.550781 4 7 4.449219 7 5 Z M 6 11 C 6.550781 11 7 10.550781 7 10 C 7 9.449219 6.550781 9 6 9 C 5.449219 9 5 9.449219 5 10 C 5 10.550781 5.449219 11 6 11 Z M 18 11 C 18.550781 11 19 10.550781 19 10 C 19 9.449219 18.550781 9 18 9 C 17.449219 9 17 9.449219 17 10 C 17 10.550781 17.449219 11 18 11 Z M 12 16 C 12.550781 16 13 15.550781 13 15 C 13 14.449219 12.550781 14 12 14 C 11.449219 14 11 14.449219 11 15 C 11 15.550781 11.449219 16 12 16 Z M 12 16 "/>
</g>
</svg>
