<?xml version="1.0" encoding="UTF-8"?>
<svg xmlns="http://www.w3.org/2000/svg" xmlns:xlink="http://www.w3.org/1999/xlink" width="30px" height="30px" viewBox="0 0 40 40" version="1.1">
<g>
<path style=" stroke:none;fill-rule:evenodd;fill:#FFFFFF;fill-opacity:1;" d="M 20.320312 8.703125 C 26.929688 8.796875 32.351562 14.738281 35.066406 19.851562 C 35.066406 19.851562 34.109375 21.808594 33.214844 23.058594 C 32.78125 23.664062 32.324219 24.253906 31.84375 24.824219 C 31.503906 25.230469 31.148438 25.628906 30.785156 26.011719 C 27.511719 29.449219 22.8125 32.015625 17.847656 31.019531 C 12.332031 29.910156 7.835938 25.1875 5.128906 20.105469 C 5.128906 20.105469 6.089844 18.148438 6.992188 16.898438 C 7.394531 16.335938 7.820312 15.792969 8.261719 15.261719 C 8.601562 14.855469 8.957031 14.460938 9.320312 14.078125 C 12.210938 11.027344 15.921875 8.683594 20.320312 8.703125 Z M 20.296875 11.203125 C 16.617188 11.191406 13.554688 13.246094 11.132812 15.796875 C 10.804688 16.144531 10.484375 16.5 10.179688 16.867188 C 9.773438 17.351562 9.386719 17.847656 9.019531 18.359375 C 8.652344 18.871094 8.273438 19.511719 7.976562 20.058594 C 10.359375 24.066406 13.9375 27.683594 18.339844 28.566406 C 22.441406 29.390625 26.269531 27.128906 28.972656 24.289062 C 29.304688 23.941406 29.625 23.582031 29.933594 23.214844 C 30.371094 22.695312 30.785156 22.15625 31.183594 21.605469 C 31.546875 21.09375 31.925781 20.449219 32.222656 19.898438 C 29.75 15.757812 25.515625 11.285156 20.296875 11.203125 Z M 20.296875 11.203125 "/>
<path style=" stroke:none;fill-rule:evenodd;fill:#FFFFFF;fill-opacity:1;" d="M 20.097656 14.96875 C 22.863281 14.96875 25.109375 17.214844 25.109375 19.976562 C 25.109375 22.746094 22.867188 24.988281 20.097656 24.988281 C 17.332031 24.988281 15.089844 22.746094 15.089844 19.976562 C 15.089844 17.210938 17.332031 14.96875 20.097656 14.96875 Z M 20.097656 17.472656 C 21.480469 17.472656 22.605469 18.59375 22.605469 19.976562 C 22.605469 21.363281 21.484375 22.484375 20.097656 22.484375 C 18.714844 22.484375 17.59375 21.363281 17.59375 19.976562 C 17.59375 18.59375 18.714844 17.472656 20.097656 17.472656 Z M 20.097656 17.472656 "/>
</g>
</svg>
