<?xml version="1.0" encoding="UTF-8"?>
<svg xmlns="http://www.w3.org/2000/svg" xmlns:xlink="http://www.w3.org/1999/xlink" width="100px" height="43px" viewBox="0 0 100 43" version="1.1">
<g id="surface1">
<path style=" stroke:none;fill-rule:nonzero;fill:rgb(98.823529%,70.196078%,8.627451%);fill-opacity:1;" d="M 40.449219 41.507812 C 40.261719 40.984375 39.917969 40.625 39.667969 40.160156 C 39.0625 39.359375 38.347656 38.667969 37.636719 37.976562 C 37.386719 37.894531 37.277344 37.65625 37.042969 37.558594 C 36.886719 37.355469 36.636719 37.25 36.4375 37.09375 C 36.03125 36.785156 35.59375 36.519531 35.140625 36.257812 C 34.285156 35.710938 33.230469 35.363281 32.183594 35.007812 C 31.054688 34.730469 29.867188 34.527344 28.632812 34.363281 C 27.410156 34.183594 26.1875 34.015625 25.257812 33.527344 C 24.726562 33.371094 24.332031 33.074219 23.871094 32.835938 C 23.441406 32.546875 22.980469 32.308594 22.621094 31.953125 C 22.183594 31.6875 21.910156 31.246094 21.566406 30.890625 C 21.445312 30.652344 21.246094 30.507812 21.148438 30.246094 C 21.03125 30.199219 20.996094 30.054688 20.925781 29.972656 C 20.839844 29.875 20.839844 29.683594 20.699219 29.648438 C 20.628906 30.136719 20.652344 30.722656 20.699219 31.222656 C 20.757812 31.4375 20.78125 31.699219 20.839844 31.914062 C 20.875 32.105469 21.054688 32.417969 20.984375 32.558594 C 17.277344 32.371094 14.570312 31.1875 12.21875 29.636719 C 11.054688 28.863281 10.054688 27.917969 9.128906 26.90625 C 8.726562 26.34375 8.285156 25.808594 7.929688 25.1875 C 7.5625 24.578125 7.253906 23.886719 6.921875 23.242188 C 6.375 21.847656 5.863281 20.414062 5.671875 18.660156 C 5.425781 17.027344 5.484375 14.9375 5.851562 13.421875 C 5.980469 12.585938 6.253906 11.882812 6.492188 11.15625 C 6.648438 10.820312 6.8125 10.488281 6.957031 10.140625 C 7.15625 9.855469 7.265625 9.460938 7.515625 9.210938 C 8.191406 7.933594 9.199219 6.980469 10.234375 6.0625 C 11.351562 5.238281 12.621094 4.570312 14.152344 4.164062 C 15.625 3.828125 17.632812 3.769531 19.226562 4.117188 C 22.457031 4.785156 24.890625 6.238281 26.933594 8.101562 C 29 9.925781 30.59375 12.242188 31.683594 15.058594 C 32.8125 17.730469 33.207031 21.894531 32.195312 24.925781 C 31.78125 24.6875 31.363281 24.457031 30.949219 24.230469 C 30.449219 24.089844 29.960938 23.921875 29.378906 23.863281 C 28.679688 23.851562 27.992188 23.863281 27.539062 24.089844 C 28.453125 23.992188 29.191406 24.246094 29.761719 24.457031 C 30.09375 24.589844 30.285156 24.671875 30.542969 24.828125 C 31.054688 25.128906 31.507812 25.402344 31.886719 25.808594 C 32.96875 26.761719 33.738281 28.027344 34.109375 29.695312 C 34.109375 29.746094 34.167969 29.734375 34.15625 29.648438 C 34.203125 29.636719 34.226562 29.601562 34.25 29.554688 C 34.308594 29.480469 34.382812 29.410156 34.441406 29.328125 C 34.558594 29.183594 34.679688 29.039062 34.761719 28.863281 C 35.011719 28.5625 35.210938 28.230469 35.402344 27.882812 C 35.84375 27.238281 36.175781 26.5 36.554688 25.796875 C 37.207031 24.292969 37.742188 22.667969 38.074219 20.832031 C 38.738281 16.75 37.945312 12.886719 36.554688 10.035156 C 35.128906 7.160156 33.132812 4.855469 30.558594 3.125 C 27.957031 1.40625 24.914062 0.144531 20.734375 0.0234375 C 20.710938 -0.0585938 20.675781 0.0351562 20.589844 0.0234375 C 18.382812 -0.046875 16.601562 0.261719 14.832031 0.714844 C 14.011719 0.992188 13.15625 1.230469 12.433594 1.597656 C 11.601562 1.875 10.933594 2.328125 10.175781 2.660156 C 9.902344 2.921875 9.484375 3.054688 9.199219 3.304688 C 8.832031 3.484375 8.558594 3.769531 8.191406 3.949219 C 7.597656 4.472656 6.96875 4.941406 6.386719 5.476562 C 5.816406 6 5.316406 6.597656 4.769531 7.148438 C 4.6875 7.335938 4.546875 7.46875 4.402344 7.613281 C 4.308594 7.792969 4.1875 7.945312 4.035156 8.078125 C 3.976562 8.292969 3.785156 8.375 3.714844 8.589844 C 3.558594 8.710938 3.523438 8.949219 3.34375 9.054688 C 3.191406 9.4375 2.917969 9.710938 2.738281 10.070312 C 2.527344 10.414062 2.359375 10.796875 2.144531 11.132812 C 1.8125 11.90625 1.457031 12.660156 1.183594 13.496094 C 0.898438 14.304688 0.660156 15.164062 0.496094 16.09375 C 0.316406 16.964844 0.152344 18.101562 0.175781 19.019531 C 0.0546875 19.351562 0.152344 19.972656 0.175781 20.367188 C 0.175781 20.4375 0.125 20.460938 0.125 20.507812 C 0.125 20.949219 0.246094 21.488281 0.269531 21.761719 C 0.363281 22.777344 0.542969 23.71875 0.828125 24.542969 C 1.003906 25.460938 1.386719 26.175781 1.660156 27 C 2.074219 27.691406 2.359375 28.515625 2.859375 29.136719 C 3.226562 29.863281 3.75 30.4375 4.25 31.03125 C 4.78125 31.605469 5.316406 32.191406 5.957031 32.65625 C 7.132812 33.683594 8.511719 34.503906 10.019531 35.207031 C 12.835938 36.582031 17.039062 37.476562 20.816406 37.25 C 21.777344 37.117188 22.753906 37 23.632812 36.785156 C 24.441406 36.484375 25.378906 36.304688 26.351562 36.1875 C 28.574219 36.042969 30.496094 36.246094 32.207031 36.75 C 33.941406 37.214844 35.4375 37.917969 36.734375 38.835938 C 37.421875 39.242188 37.992188 39.765625 38.574219 40.269531 C 39.167969 40.78125 39.644531 41.414062 40.1875 41.984375 C 40.261719 42.199219 40.402344 42.355469 40.511719 42.546875 C 40.652344 42.703125 40.582031 43.058594 40.925781 43.011719 C 41.140625 42.796875 40.890625 42.488281 40.878906 42.222656 C 40.664062 41.996094 40.617188 41.699219 40.449219 41.507812 Z M 40.449219 41.507812 "/>
<path style=" stroke:none;fill-rule:nonzero;fill:rgb(98.823529%,70.196078%,8.627451%);fill-opacity:1;" d="M 31.828125 28.8125 C 31.78125 28.8125 31.769531 28.851562 31.734375 28.863281 C 31.648438 29.039062 31.683594 29.328125 31.734375 29.503906 C 31.980469 30.019531 32.066406 30.6875 32.613281 30.902344 C 32.871094 30.816406 32.847656 30.4375 32.835938 30.066406 C 32.71875 29.613281 32.550781 29.207031 32.277344 28.910156 C 32.089844 28.835938 31.957031 28.71875 31.828125 28.8125 Z M 28.597656 30.113281 C 28.597656 30.089844 28.5625 30.066406 28.550781 30.113281 C 28.097656 30.054688 27.945312 30.304688 27.71875 30.484375 C 27.324219 31.523438 27.957031 32.535156 29.058594 32.523438 C 29.5 32.417969 29.773438 32.128906 29.84375 31.640625 C 29.785156 30.769531 29.417969 30.210938 28.597656 30.113281 Z M 28.597656 30.113281 "/>
<path style=" stroke:none;fill-rule:nonzero;fill:rgb(0.784314%,41.176471%,70.196078%);fill-opacity:1;" d="M 55.226562 26.808594 C 55.402344 27.5625 55.785156 28.097656 56.210938 28.597656 C 56.640625 29.101562 57.136719 29.519531 57.742188 29.828125 C 58.3125 30.1875 58.933594 30.484375 59.644531 30.6875 C 59.988281 30.804688 60.320312 30.949219 60.75 30.996094 C 61.046875 31.164062 61.402344 31.246094 61.425781 31.675781 C 61.414062 32.191406 61.070312 32.382812 60.628906 32.476562 C 60.191406 32.382812 59.644531 32.394531 59.277344 32.226562 C 58.351562 32.117188 57.601562 31.820312 56.816406 31.546875 C 55.320312 30.960938 54.0625 30.113281 53.015625 29.078125 C 52.804688 28.71875 52.507812 28.433594 52.28125 28.085938 C 52.054688 27.738281 51.898438 27.324219 51.664062 26.976562 C 49.832031 26.738281 48.585938 25.902344 47.492188 24.9375 C 46.484375 23.777344 45.675781 22.394531 45.34375 20.558594 C 44.953125 18.792969 45.070312 16.585938 45.535156 14.878906 C 46.542969 11.574219 48.65625 9.378906 52.648438 9.078125 C 53.753906 9.117188 54.714844 9.246094 55.59375 9.582031 C 56.484375 9.902344 57.328125 10.5 57.992188 11.121094 C 58.054688 11.167969 58.078125 11.179688 58.113281 11.238281 C 58.253906 11.441406 58.597656 11.726562 58.789062 11.980469 C 58.824219 12.027344 58.8125 12.109375 58.847656 12.167969 C 58.921875 12.277344 59.027344 12.324219 59.097656 12.421875 C 59.132812 12.480469 59.121094 12.550781 59.15625 12.597656 C 59.203125 12.671875 59.265625 12.777344 59.335938 12.910156 C 59.359375 12.957031 59.441406 12.992188 59.453125 13.027344 C 59.5625 13.230469 59.609375 13.480469 59.703125 13.707031 C 59.800781 13.949219 59.929688 14.148438 60.011719 14.390625 C 60.25 15.09375 60.40625 15.929688 60.5 16.789062 C 60.738281 19.269531 60.25 21.488281 59.335938 23.132812 C 58.90625 23.992188 58.3125 24.699219 57.613281 25.292969 C 56.972656 25.972656 56.09375 26.378906 55.226562 26.808594 Z M 52.28125 11.273438 C 51.746094 11.3125 51.425781 11.5625 50.984375 11.703125 C 50.699219 11.96875 50.34375 12.167969 50.128906 12.503906 C 49.773438 12.707031 49.679688 13.160156 49.394531 13.421875 C 49.15625 14.019531 48.929688 14.6875 48.777344 15.460938 C 48.632812 16.226562 48.539062 17.085938 48.527344 17.933594 C 48.515625 20.054688 48.964844 22.167969 49.808594 23.421875 C 50.308594 24.03125 50.914062 24.53125 51.652344 24.898438 C 52.078125 24.9375 52.410156 25.078125 52.875 25.089844 C 53.136719 24.996094 53.5625 25.089844 53.730469 24.898438 C 54.109375 24.925781 54.191406 24.671875 54.523438 24.648438 C 54.703125 24.472656 54.894531 24.328125 55.144531 24.21875 C 55.367188 23.96875 55.582031 23.71875 55.820312 23.480469 C 55.9375 23.300781 56.011719 23.050781 56.1875 22.917969 C 57.257812 20.867188 57.375 17.109375 56.675781 14.722656 C 56.414062 13.851562 56.046875 13.148438 55.628906 12.5625 C 55.179688 12.097656 54.644531 11.703125 54.039062 11.394531 C 53.550781 11.285156 53.089844 11.15625 52.445312 11.214844 C 52.410156 11.214844 52.375 11.226562 52.386719 11.273438 C 52.363281 11.273438 52.328125 11.273438 52.28125 11.273438 Z M 65.238281 9.546875 C 66.199219 9.582031 67.328125 9.460938 68.183594 9.605469 C 68.375 9.902344 68.304688 10.261719 68.304688 10.59375 C 68.375 15.117188 68.304688 19.972656 68.304688 24.589844 C 68.304688 24.960938 68.316406 25.34375 68.304688 25.699219 C 68.292969 26.011719 68.375 26.34375 68.183594 26.628906 C 67.757812 26.738281 67.140625 26.691406 66.59375 26.691406 C 66.011719 26.691406 65.441406 26.773438 65.0625 26.570312 C 64.953125 21.105469 64.953125 15.210938 65.0625 9.734375 C 65.085938 9.640625 65.144531 9.582031 65.238281 9.546875 Z M 72.601562 9.546875 L 75.488281 9.546875 C 75.75 9.902344 75.832031 10.441406 75.917969 10.964844 C 76.785156 14.28125 77.640625 17.609375 78.433594 21.011719 C 78.625 21.035156 78.566406 20.808594 78.625 20.699219 C 78.707031 20.617188 78.660156 20.414062 78.742188 20.332031 C 78.777344 20.054688 78.945312 19.914062 78.933594 19.589844 C 79.148438 19.171875 79.21875 18.601562 79.421875 18.171875 C 79.667969 17.167969 80.003906 16.238281 80.289062 15.273438 C 80.5625 14.269531 80.929688 13.363281 81.140625 12.3125 C 81.546875 11.464844 81.640625 10.308594 82.128906 9.546875 L 83.351562 9.546875 C 83.792969 10.378906 83.957031 11.488281 84.335938 12.382812 C 84.585938 13.386719 84.929688 14.292969 85.191406 15.285156 C 85.796875 17.203125 86.429688 19.101562 86.972656 21.082031 C 87.222656 20.710938 87.222656 20.09375 87.402344 19.664062 C 87.507812 19.171875 87.605469 18.671875 87.769531 18.242188 C 88.246094 16.285156 88.695312 14.316406 89.242188 12.445312 C 89.445312 11.464844 89.648438 10.464844 89.980469 9.605469 C 90.691406 9.496094 91.785156 9.496094 92.496094 9.605469 C 92.558594 10.332031 92.222656 11.121094 92.011719 11.765625 C 91.890625 12.550781 91.605469 13.160156 91.453125 13.921875 C 91.011719 15.320312 90.679688 16.800781 90.230469 18.183594 C 89.882812 19.664062 89.421875 21.023438 89.066406 22.503906 C 88.828125 23.183594 88.660156 23.933594 88.445312 24.660156 C 88.210938 25.328125 88.125 26.152344 87.769531 26.703125 L 86.046875 26.703125 C 85.609375 25.925781 85.453125 24.875 85.0625 24.054688 C 84.207031 21.332031 83.257812 18.71875 82.425781 15.976562 C 82.140625 16.273438 82.140625 16.882812 81.9375 17.265625 C 81.808594 17.730469 81.675781 18.195312 81.511719 18.625 C 81.273438 19.566406 80.917969 20.367188 80.714844 21.332031 C 80.371094 22.179688 80.121094 23.121094 79.859375 24.054688 C 79.503906 24.863281 79.371094 25.902344 78.933594 26.640625 C 78.480469 26.785156 77.769531 26.667969 77.210938 26.703125 C 76.785156 26.210938 76.734375 25.328125 76.476562 24.660156 C 76.273438 23.96875 76.128906 23.207031 75.867188 22.5625 C 75.535156 21.058594 75.039062 19.734375 74.703125 18.242188 C 74.265625 16.859375 73.886719 15.414062 73.480469 13.984375 C 73.257812 13.304688 73.089844 12.574219 72.863281 11.882812 C 72.757812 11.144531 72.257812 10.476562 72.4375 9.664062 C 72.460938 9.605469 72.53125 9.570312 72.601562 9.546875 Z M 96.84375 9.546875 C 97.804688 9.582031 98.921875 9.460938 99.789062 9.605469 C 100.003906 10.25 99.910156 10.941406 99.910156 11.632812 L 99.910156 24.578125 C 99.910156 25.28125 99.992188 25.960938 99.789062 26.617188 C 99.125 26.691406 98.152344 26.726562 97.332031 26.679688 C 97.09375 26.667969 96.808594 26.738281 96.65625 26.558594 C 96.441406 25.914062 96.535156 25.234375 96.535156 24.519531 L 96.535156 11.703125 C 96.535156 10.929688 96.464844 10.175781 96.65625 9.664062 C 96.703125 9.605469 96.773438 9.570312 96.84375 9.546875 Z M 96.84375 9.546875 "/>
</g>
</svg>
